<svg id="35f1595d-0a82-4fb9-8246-8f282749adc6" data-name="Layer 1" xmlns="http://www.w3.org/2000/svg" xmlns:xlink="http://www.w3.org/1999/xlink" width="936.51" height="681.45" viewBox="0 0 936.51 681.45"><defs><linearGradient id="6fc614c0-1bef-4212-b447-7bbfe223b3ac" x1="326.5" y1="646.62" x2="326.5" y2="117.65" gradientUnits="userSpaceOnUse"><stop offset="0" stop-color="gray" stop-opacity="0.25"/><stop offset="0.54" stop-color="gray" stop-opacity="0.12"/><stop offset="1" stop-color="gray" stop-opacity="0.1"/></linearGradient></defs><title>Lighthouse2</title><polygon points="570.22 382.24 580.26 417.01 590.3 451.79 570.22 451.79 550.14 451.79 560.18 417.01 570.22 382.24" fill="#3ad29f"/><polygon points="589.99 377.54 600.02 412.31 610.06 447.08 589.99 447.08 569.91 447.08 579.95 412.31 589.99 377.54" fill="#3ad29f"/><polygon points="609.75 377.54 619.79 412.31 629.83 447.08 609.75 447.08 589.67 447.08 599.71 412.31 609.75 377.54" fill="#3ad29f"/><polygon points="762.4 398.76 772.44 433.54 782.48 468.31 762.4 468.31 742.32 468.31 752.36 433.54 762.4 398.76" fill="#3ad29f"/><polygon points="120.25 364.56 137.44 396.41 154.63 428.26 135.02 432.52 115.4 436.78 117.82 400.67 120.25 364.56" fill="#3ad29f"/><polygon points="0 681.31 38 502.31 66 465.31 94 417.31 146 386.31 185 364.31 201 412.31 231.74 432.9 251 461.31 281 451.31 319 420.31 348 412.31 389 386.31 427 396.31 466 382.31 492 364.31 517 394.31 531 433.31 534 447.31 570 447.31 610 447.31 635 420.31 674 412.31 712 412.31 738 420.31 784 433.31 886 681.31 0 681.31" fill="#e0e0e0"/><g opacity="0.3"><rect x="145.62" y="153.01" width="154.36" height="30.12" rx="15.06" ry="15.06" fill="#e0e0e0"/><rect x="107.97" y="183.12" width="154.36" height="30.12" rx="15.06" ry="15.06" fill="#e0e0e0"/><rect x="145.62" y="213.24" width="154.36" height="30.12" rx="15.06" ry="15.06" fill="#e0e0e0"/></g><g opacity="0.5"><polygon points="427 646.62 226 646.62 237.77 117.65 415.23 117.65 427 646.62" fill="url(#6fc614c0-1bef-4212-b447-7bbfe223b3ac)"/></g><polygon points="423.08 646.62 230.13 646.62 241.42 117.65 411.78 117.65 423.08 646.62" fill="#fff"/><g opacity="0.05"><polygon points="276.25 646.62 230.13 646.62 241.42 117.65 264.95 117.65 276.25 646.62"/></g><path d="M200.95,447.08H453.2a0,0,0,0,1,0,0v0a35.77,35.77,0,0,1-35.77,35.77H236.72a35.77,35.77,0,0,1-35.77-35.77v0a0,0,0,0,1,0,0Z" fill="#6c63ff"/><path d="M200.95,269.19H453.2a0,0,0,0,1,0,0v0A35.77,35.77,0,0,1,417.43,305H236.72a35.77,35.77,0,0,1-35.77-35.77v0A0,0,0,0,1,200.95,269.19Z" fill="#6c63ff"/><circle cx="327.07" cy="193.42" r="46.12" fill="#ffffa5"/><polygon points="200.95 117.65 326.13 0 451 117.65 200.95 117.65" fill="#6c63ff"/><polygon points="451.31 117.65 326.13 0 326.13 117.65 451.31 117.65" fill="#fff" opacity="0.1"/><rect x="233.89" y="482.85" width="185.42" height="2.82" opacity="0.1"/><rect x="236.72" y="304.96" width="178.83" height="1.88" opacity="0.1"/><path d="M534.9,773.31H475.6V691.9a29.65,29.65,0,0,1,29.65-29.65h0A29.65,29.65,0,0,1,534.9,691.9Z" transform="translate(-157 -126.69)" fill="#e0e0e0"/><path d="M1040.34,808.14H157.47s57-131,143.4-154.18a98.37,98.37,0,0,1,38.27-2.71C360,653.9,378.82,664.83,392.21,681c28.31,34.24,115.06,108.85,288.58,23.59,0,0,62.12-62.12,161.89,11.29a192.43,192.43,0,0,0,19,8.2c30.61,11.57,91.84,27.69,135.37-6.32C1057.28,670.72,1040.34,808.14,1040.34,808.14Z" transform="translate(-157 -126.69)" fill="#4d8af0"/><g opacity="0.3"><rect x="557.62" y="14.01" width="154.36" height="30.12" rx="15.06" ry="15.06" fill="#e0e0e0"/><rect x="519.97" y="44.12" width="154.36" height="30.12" rx="15.06" ry="15.06" fill="#e0e0e0"/><rect x="557.62" y="74.24" width="154.36" height="30.12" rx="15.06" ry="15.06" fill="#e0e0e0"/></g><g opacity="0.3"><rect x="685.62" y="224.01" width="154.36" height="30.12" rx="15.06" ry="15.06" fill="#e0e0e0"/><rect x="647.97" y="254.12" width="154.36" height="30.12" rx="15.06" ry="15.06" fill="#e0e0e0"/><rect x="685.62" y="284.24" width="154.36" height="30.12" rx="15.06" ry="15.06" fill="#e0e0e0"/></g><g opacity="0.3"><path d="M791.85,360.11H824.8S812.38,382.07,791.85,360.11Z" transform="translate(-157 -126.69)" fill="#030b44"/><path d="M793.84,369.46l21.6-24.88S823.88,368.35,793.84,369.46Z" transform="translate(-157 -126.69)" fill="#030b44"/></g><g opacity="0.3"><path d="M674.2,428.82h32.94S694.73,450.78,674.2,428.82Z" transform="translate(-157 -126.69)" fill="#030b44"/><path d="M676.19,438.17l21.6-24.88S706.23,437.06,676.19,438.17Z" transform="translate(-157 -126.69)" fill="#030b44"/></g><g opacity="0.3"><path d="M631.59,170.93h35.34S653.61,194.49,631.59,170.93Z" transform="translate(-157 -126.69)" fill="#030b44"/><path d="M633.72,181l23.17-26.69S665.95,179.77,633.72,181Z" transform="translate(-157 -126.69)" fill="#030b44"/></g><g opacity="0.05"><path d="M388.74,609.4c1,.09,2,.14,3.09.14h36l-.76-35.77H389.5Z" transform="translate(-157 -126.69)"/></g><g opacity="0.05"><polygon points="268.19 269.19 238.19 269.19 237.42 304.96 268.95 304.96 268.19 269.19"/></g><path d="M1092.07,561.08a1.5,1.5,0,0,0,0-3,1.5,1.5,0,0,0,0,3Z" transform="translate(-157 -126.69)" fill="#4d8af0"/></svg>