<svg id="8c3e5f68-3c66-4a27-bdd3-1f2796debc31" data-name="Layer 1" xmlns="http://www.w3.org/2000/svg" xmlns:xlink="http://www.w3.org/1999/xlink" width="908" height="540" viewBox="0 0 908 540"><defs><linearGradient id="c01a0476-7b12-4982-ae4d-9d33b5e8d2d3" x1="554.46" y1="649.82" x2="554.46" y2="480.53" gradientUnits="userSpaceOnUse"><stop offset="0" stop-color="gray" stop-opacity="0.25"/><stop offset="0.54" stop-color="gray" stop-opacity="0.12"/><stop offset="1" stop-color="gray" stop-opacity="0.1"/></linearGradient><linearGradient id="ca8e8226-d233-410f-b177-3d0594b4c566" x1="658.96" y1="630.37" x2="658.96" y2="272.66" xlink:href="#c01a0476-7b12-4982-ae4d-9d33b5e8d2d3"/></defs><title>winter olympics drone selfie1</title><path d="M209.8,589.49c4.5-7.49,11.77-12.79,17.65-19.24,39.29-43.11,6-118.68,37.64-167.76,18.11-28.1,53.83-41,71.41-69.41,13.79-22.32,14.25-50.91,27.55-73.52a73.35,73.35,0,0,1,57.65-35.47c16.63-1,33,3.75,49.18,7.79,49.92,12.48,106.86,17.13,149-12.6,21.78-15.37,41-40.13,67.57-39.25,26.35.87,45.15,27.14,70.7,33.7,11.31,2.9,23.22,1.73,34.77.12a487.4,487.4,0,0,0,70.38-15.15c27.92-8.21,58.42-18.84,85-7,34.23,15.21,44,59.59,42.22,97.2-.91,18.93-3.23,39.49,7,55.4,4.66,7.25,11.54,12.77,16.74,19.64,7.34,9.71,11,21.65,14.56,33.32,15,49.32,29.55,104.42,6.87,150.65-1.79,3.65-3.82,7.25-4.69,11.23-2.54,11.55,5,22.56,10.73,32.89C1054,614.2,1059,642.31,1047.59,665S1005,700.27,984,686.26c-6.75-4.49-11.92-11.13-18.83-15.38-12.24-7.54-28.12-6.4-41.53-1.28s-25.16,13.76-37.53,21.07a212,212,0,0,1-117.81,29.07c-50.17-2.54-97.55-22.83-146.54-34-61.89-14.15-126-13.71-189.5-13.2-26.32.21-52.8.76-78.86,4.8-20.14,3.12-49.62,20.39-69.28,15.15-18-4.8-42.32-28-55.82-40.54C212.17,637,196.71,611.28,209.8,589.49Z" transform="translate(-146 -180)" fill="#c6cedf"/><g opacity="0.5"><path d="M882.3,649.82s-256.49-6.16-338.59-6.16-317.09,6.16-317.09,6.16c-44.52,0-80.62-37.9-80.62-84.64h0c0-46.75,36.09-84.64,80.62-84.64,0,0,238.06,11.29,320,11.29S882.3,480.53,882.3,480.53c44.52,0,80.62,37.9,80.62,84.64h0C962.92,611.92,926.83,649.82,882.3,649.82Z" transform="translate(-146 -180)" fill="url(#c01a0476-7b12-4982-ae4d-9d33b5e8d2d3)"/></g><path d="M956.19,564.21A79.88,79.88,0,0,1,933,620.64,78.85,78.85,0,0,1,876.9,644s-252.27-5.8-333-5.8c-46.08,0-141.13,1.89-214.24,3.51l-34.55.78-37.59.88L232,644a79.75,79.75,0,0,1-8.92-.5c-39.59-4.46-70.37-38.27-70.37-79.3a79.88,79.88,0,0,1,23.22-56.43A78.85,78.85,0,0,1,232,484.4s9.08.42,24.3,1.08c9.29.4,20.87.9,34.08,1.45,11.31.47,23.82,1,37.08,1.53,10.93.44,22.37.9,34.1,1.35,68,2.62,145.36,5.22,185.2,5.22,80.62,0,330.13-10.64,330.13-10.64C920.69,484.4,956.19,520.14,956.19,564.21Z" transform="translate(-146 -180)" fill="#6c63ff"/><g opacity="0.1"><path d="M797.38,486.94l32.89,156.45,25.49.63a79.75,79.75,0,0,0,8.92-.5l-33.22-158C822.17,485.88,810.59,486.39,797.38,486.94Z" transform="translate(-146 -180)" fill="#fff"/></g><g opacity="0.1"><path d="M726.21,489.82l31.93,151.9,34.55.78-32.38-154C749.38,488.91,737.93,489.36,726.21,489.82Z" transform="translate(-146 -180)" fill="#fff"/></g><g opacity="0.1"><path d="M290.39,486.94,257.5,643.38,232,644a79.75,79.75,0,0,1-8.92-.5l33.22-158C265.61,485.88,277.19,486.39,290.39,486.94Z" transform="translate(-146 -180)" fill="#fff"/></g><g opacity="0.1"><path d="M361.57,489.82l-31.93,151.9-34.55.78,32.38-154C338.4,488.91,349.85,489.36,361.57,489.82Z" transform="translate(-146 -180)" fill="#fff"/></g><g opacity="0.5"><path d="M956,428.24l-17.21-32.18c4.72-11.71,4.88-29.05-6.76-54.57-11.22-24.58-21.3-24-29.59-13.4l-13.16-24.6a2,2,0,0,0-2.7-.82h0a2,2,0,0,0-.81,2.72l1.89,3.54-3.52,1.91-1.89-3.54a2,2,0,0,0-2.7-.82,2,2,0,0,0-.81,2.72l1.89,3.54-3.52,1.91-1.89-3.54a2,2,0,0,0-2.7-.82,2,2,0,0,0-.81,2.72l19.7,36.82c-7.55,20.28-12.07,44.2-12.46,46.26-14.33,13.09-130.64,115.85-219,85.94a35,35,0,0,0-10.77-1.76c-7.67-.1-21.41-2.37-39-5.1.18-2.17.27-4.37.27-6.58A80.32,80.32,0,0,0,607,445.73a8.08,8.08,0,0,0,.32-2.25v-9a8,8,0,0,0-8-8V370.12c0-41.28-26.88-61.12-64-67.22.05-.7.09-1.4.09-2.12a28,28,0,1,0-55.91,0c0,.71,0,1.42.09,2.11l-.09,0h0c-37.06,6.11-63.9,26-63.9,67.2V427a8,8,0,0,0-5,7.45v3.69a80.57,80.57,0,0,0-6,30.47c0,1.45,0,2.89.12,4.32-11,1.42-20.46,2.83-27.77,4a17.83,17.83,0,0,0-14.62,20.93q.56,3.07,1.34,6.17a27.7,27.7,0,0,0-2,10.32c0,14.72,11.9,37,26.35,38.59q1.6,2.07,3.28,4.08a116.34,116.34,0,0,1-8.17,10.59,59.38,59.38,0,0,0,17.47,1.55v24.08a36.93,36.93,0,0,0,73.75,3h76.13a37,37,0,0,0,1.54,8h0l.05.15q.26.83.56,1.64l.11.28c.19.5.39,1,.6,1.49l.12.26c.22.49.44,1,.67,1.46l.13.26c.24.47.48.94.74,1.41l0,.08h0a37,37,0,0,0,32.23,19.09h0a37,37,0,0,0,32.23-19.09h0l0-.08c.26-.46.5-.93.74-1.41l.13-.26c.24-.48.46-1,.68-1.46l.12-.26c.21-.49.41-1,.6-1.49L622,606q.3-.81.56-1.64l.05-.15h0a37.09,37.09,0,0,0,1.68-11.05V569.11a55.43,55.43,0,0,0,10.48-1.54c-1.13-1.3-2.21-2.61-3.26-3.94,7.61-5.45,13.84-9.67,16.74-10.63,0,0,127.75,39.51,264.19-134.05a44.33,44.33,0,0,0,12.65-6l13.29,24.84a2,2,0,0,0,2.7.82h0a2,2,0,0,0,.81-2.72l3.52-1.91a2,2,0,0,0,2.7.82,2,2,0,0,0,.81-2.72h0l3.52-1.91a2,2,0,0,0,2.7.82A2,2,0,0,0,956,428.24Z" transform="translate(-146 -180)" fill="url(#ca8e8226-d233-410f-b177-3d0594b4c566)"/></g><path d="M425.68,512c0,14.69-11.35,37.24-25.95,37.24S372.82,526.66,372.82,512a26.43,26.43,0,1,1,52.86,0Z" transform="translate(-146 -180)" fill="#fdb797"/><ellipse cx="367.13" cy="287.96" rx="98.99" ry="87.06" fill="#fdd835"/><path d="M481.42,564.69v23.22a35.56,35.56,0,1,1-71.12,0V564.69a35.78,35.78,0,0,1,35.56-35.79A35.32,35.32,0,0,1,471,539.41,35.78,35.78,0,0,1,481.42,564.69Z" transform="translate(-146 -180)" fill="#e0e0e0"/><rect x="408.46" y="348.9" width="71.12" height="94.8" rx="35.56" ry="35.56" fill="#e0e0e0"/><path d="M872.1,396.86s-121.45,114.77-212.29,84a33.68,33.68,0,0,0-10.36-1.69c-18.79-.25-75.4-14-135.35-14.15-49.94-.1-101.47,6.92-126.58,10.89a17.16,17.16,0,0,0-14.08,20.15c8.17,44.53,50.8,94.71,97.41,94.71H583.29c10.41,0,56-38.49,65.35-41.6,0,0,123.5,38.21,255.17-130.11Z" transform="translate(-146 -180)" fill="#f55f44"/><ellipse cx="367.61" cy="272" rx="88.42" ry="88.99" fill="#fdb797"/><path d="M601.55,451.51H424.71V373.16c0-49.15,39.59-66.75,88.42-66.75h0c48.83,0,88.42,17.6,88.42,66.75Z" transform="translate(-146 -180)" fill="#535461"/><rect x="278.71" y="244.43" width="176.84" height="2.9" opacity="0.1"/><ellipse cx="367.13" cy="126.41" rx="26.91" ry="27.09" fill="#535461"/><path d="M486.22,308.46s34.43-6.66,53.74,0" transform="translate(-146 -180)" opacity="0.1"/><path d="M485.21,589.84a16.38,16.38,0,0,0,5.8-12.31,2.37,2.37,0,0,0,0-.26,16.43,16.43,0,0,0-9.61-15,16.1,16.1,0,0,0-6.73-1.46,16.46,16.46,0,0,0-10.57,29" transform="translate(-146 -180)" fill="none" stroke="#fff" stroke-linecap="round" stroke-miterlimit="10" stroke-width="2"/><path d="M509.8,589.84a16.28,16.28,0,0,0-15.89-12.58,15.86,15.86,0,0,0-2.89.26,16.44,16.44,0,0,0-13,12.31" transform="translate(-146 -180)" fill="none" stroke="#fff" stroke-linecap="round" stroke-miterlimit="10" stroke-width="2"/><path d="M549.2,589.84a16.28,16.28,0,0,0-15.89-12.58,15.86,15.86,0,0,0-2.89.26,16.4,16.4,0,0,0-13,12.31" transform="translate(-146 -180)" fill="none" stroke="#fff" stroke-linecap="round" stroke-miterlimit="10" stroke-width="2"/><path d="M524.62,589.84a16.38,16.38,0,0,0,5.8-12.31,2.37,2.37,0,0,0,0-.26,16.34,16.34,0,1,0-32.68,0c0,.15,0,.3,0,.45a16.41,16.41,0,0,0,5.8,12.12" transform="translate(-146 -180)" fill="none" stroke="#fff" stroke-linecap="round" stroke-miterlimit="10" stroke-width="2"/><path d="M564.12,589.75a16.47,16.47,0,0,0-9.66-28.9l-1,0a16.39,16.39,0,0,0-16.34,16.44c0,.15,0,.3,0,.45a16.41,16.41,0,0,0,5.8,12.12" transform="translate(-146 -180)" fill="none" stroke="#fff" stroke-linecap="round" stroke-miterlimit="10" stroke-width="2"/><path d="M425.23,447.64s8.62,69.16-31.75,115.6c0,0,38.44,10.64,51.9-23.22s8.17-94.31,8.17-94.31Z" transform="translate(-146 -180)" fill="#fdd835"/><path d="M603.92,447.64s-8.62,69.16,31.75,115.6c0,0-38.44,10.64-51.9-23.22s-8.17-94.31-8.17-94.31Z" transform="translate(-146 -180)" fill="#fdd835"/><polygon points="279.19 270.06 455.55 270.06 455.55 272.48 279.23 272.48 279.19 270.06" opacity="0.1"/><rect x="273.91" y="247.33" width="189.33" height="24.18" rx="8" ry="8" fill="#535461"/><path d="M479.8,598.55a35.84,35.84,0,0,1-2.91,6.77H414.82a35.84,35.84,0,0,1-2.91-6.77Z" transform="translate(-146 -180)" fill="#6c63ff"/><path d="M624,598.55a35.84,35.84,0,0,1-2.91,6.77H559a35.84,35.84,0,0,1-2.91-6.77Z" transform="translate(-146 -180)" fill="#6c63ff"/><path d="M624,598.55a35.84,35.84,0,0,1-2.91,6.77H559a35.84,35.84,0,0,1-2.91-6.77Z" transform="translate(-146 -180)" opacity="0.1"/><path d="M479.8,598.55a35.84,35.84,0,0,1-2.91,6.77H414.82a35.84,35.84,0,0,1-2.91-6.77Z" transform="translate(-146 -180)" opacity="0.1"/><path d="M556.07,598.55H624" transform="translate(-146 -180)" opacity="0.1"/><path d="M901.41,420.56s50.08-9.89,20.39-75-51.14,52.72-51.14,52.72Z" transform="translate(-146 -180)" fill="#fdb797"/><polygon points="796.76 250.25 784.07 257.13 721.65 140.44 734.34 133.56 796.76 250.25" fill="#ffac4b"/><path d="M930.56,439.06h0a1.92,1.92,0,0,1-2.6-.79l-64.24-120.1a1.94,1.94,0,0,1,.78-2.62h0a1.92,1.92,0,0,1,2.6.79l64.24,120.1A1.94,1.94,0,0,1,930.56,439.06Z" transform="translate(-146 -180)" fill="#ffd26f"/><path d="M944.09,431.73h0a1.94,1.94,0,0,0,.78-2.62L880.64,309a1.92,1.92,0,0,0-2.6-.79h0a1.94,1.94,0,0,0-.78,2.62l64.24,120.1A1.92,1.92,0,0,0,944.09,431.73Z" transform="translate(-146 -180)" fill="#ffd26f"/><path d="M937.33,435.39h0a1.94,1.94,0,0,0,.78-2.62l-64.24-120.1a1.92,1.92,0,0,0-2.6-.79h0a1.94,1.94,0,0,0-.78,2.62l64.24,120.1A1.92,1.92,0,0,0,937.33,435.39Z" transform="translate(-146 -180)" fill="#ffd26f"/><path d="M792.88,242.19a14,14,0,1,0,13.94,14A14.2,14.2,0,0,0,792.88,242.19Z" transform="translate(-146 -180)" fill="#fff"/><path d="M739.55,291.52a14,14,0,1,0,13.94,14A14.2,14.2,0,0,0,739.55,291.52Z" transform="translate(-146 -180)" fill="#fff"/><path d="M692,335a14,14,0,1,0,13.94,14A14.2,14.2,0,0,0,692,335Z" transform="translate(-146 -180)" fill="#fff"/><path d="M694.86,413.4a14,14,0,1,0,13.94,14A14.2,14.2,0,0,0,694.86,413.4Z" transform="translate(-146 -180)" fill="#fff"/><path d="M775.59,367a14,14,0,1,0,13.94,14A14.2,14.2,0,0,0,775.59,367Z" transform="translate(-146 -180)" fill="#fff"/><path d="M961.55,425a14,14,0,1,0,13.94,14A14.2,14.2,0,0,0,961.55,425Z" transform="translate(-146 -180)" fill="#fff"/><path d="M992.28,529.61a14,14,0,0,0-3.58-6.19l-2.82-2.19a13.8,13.8,0,0,0-7-1.92H976a13.47,13.47,0,0,0-12.74,8.62,10.62,10.62,0,0,0-1.2,5.4l.5,3.73a14,14,0,0,0,3.58,6.19l2.82,2.19a13.8,13.8,0,0,0,7,1.92h2.88a13.47,13.47,0,0,0,12.74-8.62,10.62,10.62,0,0,0,1.2-5.4Z" transform="translate(-146 -180)" fill="#fff"/><path d="M452.68,323.92c-9.89,0-9.91,15.48,0,15.48S462.59,323.92,452.68,323.92Z" transform="translate(-146 -180)" fill="#fff"/><path d="M471.42,335.53c-9.89,0-9.91,15.48,0,15.48S481.33,335.53,471.42,335.53Z" transform="translate(-146 -180)" fill="#fff"/><path d="M504.57,321c-9.89,0-9.91,15.48,0,15.48S514.49,321,504.57,321Z" transform="translate(-146 -180)" fill="#fff"/><path d="M562.24,318.12c-9.89,0-9.91,15.48,0,15.48S572.15,318.12,562.24,318.12Z" transform="translate(-146 -180)" fill="#fff"/><path d="M627.11,316.67c-9.89,0-9.91,15.48,0,15.48S637,316.67,627.11,316.67Z" transform="translate(-146 -180)" fill="#fff"/><path d="M638.64,376.16c-9.89,0-9.91,15.48,0,15.48S648.55,376.16,638.64,376.16Z" transform="translate(-146 -180)" fill="#fff"/><path d="M449.47,414.7a8,8,0,0,0-5.44-2.27h-2.88a7.74,7.74,0,0,0,0,15.48H444a7.75,7.75,0,0,0,5.44-13.21Z" transform="translate(-146 -180)" fill="#fff"/><path d="M475.74,415.33c-9.89,0-9.91,15.48,0,15.48S485.65,415.33,475.74,415.33Z" transform="translate(-146 -180)" fill="#fff"/><path d="M495.92,411c-9.89,0-9.91,15.48,0,15.48S505.84,411,495.92,411Z" transform="translate(-146 -180)" fill="#fff"/><path d="M557.91,418.72c-5.57,0-5.57,8.71,0,8.71S563.49,418.72,557.91,418.72Z" transform="translate(-146 -180)" fill="#fff"/><path d="M579.53,417.27a4.41,4.41,0,0,0-1.48.26,4.15,4.15,0,0,0-1.41-.26h-4.32a4.5,4.5,0,0,0-3.63,2,4.19,4.19,0,0,0-2.13-.56c-5.57,0-5.57,8.71,0,8.71a3.92,3.92,0,0,0,3.61-2.07,4.13,4.13,0,0,0,2.16.61h4.32a4.09,4.09,0,0,0,1.39-.27,4.41,4.41,0,0,0,1.5.27C585.1,426,585.11,417.27,579.53,417.27Z" transform="translate(-146 -180)" fill="#fff"/><path d="M594,427.42c-5.57,0-5.57,8.71,0,8.71S599.53,427.42,594,427.42Z" transform="translate(-146 -180)" fill="#fff"/><path d="M634.31,470.95h-2.88a4.35,4.35,0,0,0,0,8.71h2.88a4.35,4.35,0,0,0,0-8.71Z" transform="translate(-146 -180)" fill="#fff"/><path d="M655.24,477.35l-5.77-2.9a4.39,4.39,0,0,0-5.92,1.56c-1,2-.61,4.87,1.55,6l5.77,2.9a4.39,4.39,0,0,0,5.92-1.56C657.82,481.33,657.4,478.44,655.24,477.35Z" transform="translate(-146 -180)" fill="#fff"/><path d="M670.53,480.93a4.48,4.48,0,0,0-3.06-1.27H666a4.35,4.35,0,0,0,0,8.71h1.44a4.36,4.36,0,0,0,3.06-7.43Z" transform="translate(-146 -180)" fill="#fff"/><path d="M686.21,482.56c-5.57,0-5.57,8.71,0,8.71S691.78,482.56,686.21,482.56Z" transform="translate(-146 -180)" fill="#fff"/><path d="M408,289.58c-5.57,0-5.57,8.71,0,8.71S413.56,289.58,408,289.58Z" transform="translate(-146 -180)" fill="#fff"/><path d="M382,356.33c-5.57,0-5.57,8.71,0,8.71S387.62,356.33,382,356.33Z" transform="translate(-146 -180)" fill="#fff"/><path d="M813.07,323c-5.57,0-5.57,8.71,0,8.71S818.64,323,813.07,323Z" transform="translate(-146 -180)" fill="#fff"/><path d="M854.87,272.17c-5.57,0-5.57,8.71,0,8.71S860.45,272.17,854.87,272.17Z" transform="translate(-146 -180)" fill="#fff"/><path d="M921.18,299.74c-5.57,0-5.57,8.71,0,8.71S926.76,299.74,921.18,299.74Z" transform="translate(-146 -180)" fill="#fff"/><path d="M970.37,354.7l-1.44-1.45a4.45,4.45,0,0,0-3.06-1.27,4.34,4.34,0,0,0-4.32,4.35,4.55,4.55,0,0,0,1.27,3.08l1.44,1.45a4.45,4.45,0,0,0,3.06,1.27,4.34,4.34,0,0,0,4.32-4.35A4.55,4.55,0,0,0,970.37,354.7Z" transform="translate(-146 -180)" fill="#fff"/><path d="M297.17,479.48a4.48,4.48,0,0,0-3.06-1.27h-1.44a4.35,4.35,0,0,0,0,8.71h1.44a4.36,4.36,0,0,0,3.06-7.43Z" transform="translate(-146 -180)" fill="#fff"/><path d="M331.59,485.46c-5.57,0-5.57,8.71,0,8.71S337.16,485.46,331.59,485.46Z" transform="translate(-146 -180)" fill="#fff"/><path d="M346,482.56c-5.57,0-5.57,8.71,0,8.71S351.58,482.56,346,482.56Z" transform="translate(-146 -180)" fill="#fff"/><path d="M351.77,455c-5.57,0-5.57,8.71,0,8.71S357.34,455,351.77,455Z" transform="translate(-146 -180)" fill="#fff"/><path d="M321.5,418.72c-5.57,0-5.57,8.71,0,8.71S327.07,418.72,321.5,418.72Z" transform="translate(-146 -180)" fill="#fff"/><path d="M347.62,395.33a4.48,4.48,0,0,0-3.06-1.27h-1.44a4.35,4.35,0,0,0,0,8.71h1.44a4.36,4.36,0,0,0,3.06-7.43Z" transform="translate(-146 -180)" fill="#fff"/><path d="M366.19,349.07c-5.57,0-5.57,8.71,0,8.71S371.76,349.07,366.19,349.07Z" transform="translate(-146 -180)" fill="#fff"/><path d="M459.89,260.57c-5.57,0-5.57,8.71,0,8.71S465.46,260.57,459.89,260.57Z" transform="translate(-146 -180)" fill="#fff"/><path d="M397.9,407.11c-5.57,0-5.57,8.71,0,8.71S403.47,407.11,397.9,407.11Z" transform="translate(-146 -180)" fill="#fff"/><path d="M384.93,475.3H382a4.35,4.35,0,0,0,0,8.71h2.88a4.35,4.35,0,0,0,0-8.71Z" transform="translate(-146 -180)" fill="#fff"/><path d="M405.11,473.85c-5.57,0-5.57,8.71,0,8.71S410.68,473.85,405.11,473.85Z" transform="translate(-146 -180)" fill="#fff"/><path d="M402.22,489.81c-5.57,0-5.57,8.71,0,8.71S407.8,489.81,402.22,489.81Z" transform="translate(-146 -180)" fill="#fff"/><path d="M707.83,666.82c-5.57,0-5.57,8.71,0,8.71S713.41,666.82,707.83,666.82Z" transform="translate(-146 -180)" fill="#fff"/><path d="M751.08,669.73c-5.57,0-5.57,8.71,0,8.71S756.65,669.73,751.08,669.73Z" transform="translate(-146 -180)" fill="#fff"/><path d="M771.26,643.61c-5.57,0-5.57,8.71,0,8.71S776.84,643.61,771.26,643.61Z" transform="translate(-146 -180)" fill="#fff"/><path d="M932.72,637.81c-5.57,0-5.57,8.71,0,8.71S938.29,637.81,932.72,637.81Z" transform="translate(-146 -180)" fill="#fff"/><path d="M968.75,623.3c-5.57,0-5.57,8.71,0,8.71S974.33,623.3,968.75,623.3Z" transform="translate(-146 -180)" fill="#fff"/><path d="M294.11,666.82c-5.57,0-5.57,8.71,0,8.71S299.68,666.82,294.11,666.82Z" transform="translate(-146 -180)" fill="#fff"/><path d="M354.65,616c-5.57,0-5.57,8.71,0,8.71S360.23,616,354.65,616Z" transform="translate(-146 -180)" fill="#fff"/><path d="M284,592.83c-5.57,0-5.57,8.71,0,8.71S289.59,592.83,284,592.83Z" transform="translate(-146 -180)" fill="#fff"/><path d="M175.9,547.85c-5.57,0-5.57,8.71,0,8.71S181.48,547.85,175.9,547.85Z" transform="translate(-146 -180)" fill="#fff"/><path d="M292.84,536.07a4.48,4.48,0,0,0-3.06-1.27h-1.44a4.35,4.35,0,0,0,0,8.71h1.44a4.36,4.36,0,0,0,3.06-7.43Z" transform="translate(-146 -180)" fill="#fff"/><path d="M364.74,560.91c-5.57,0-5.57,8.71,0,8.71S370.32,560.91,364.74,560.91Z" transform="translate(-146 -180)" fill="#fff"/><path d="M640.08,582.67c-5.57,0-5.57,8.71,0,8.71S645.65,582.67,640.08,582.67Z" transform="translate(-146 -180)" fill="#fff"/><path d="M736.66,592.83c-5.57,0-5.57,8.71,0,8.71S742.24,592.83,736.66,592.83Z" transform="translate(-146 -180)" fill="#fff"/><path d="M818.83,574c-5.57,0-5.57,8.71,0,8.71S824.41,574,818.83,574Z" transform="translate(-146 -180)" fill="#fff"/><path d="M910.94,522a4.44,4.44,0,0,0-2-2.6c-2-1-4.84-.61-5.92,1.56l-1.44,2.9a4.66,4.66,0,0,0-.44,3.35,4.44,4.44,0,0,0,2,2.6c2,1,4.84.61,5.92-1.56l1.44-2.9A4.66,4.66,0,0,0,910.94,522Z" transform="translate(-146 -180)" fill="#fff"/><path d="M873.61,572.51c-5.57,0-5.57,8.71,0,8.71S879.19,572.51,873.61,572.51Z" transform="translate(-146 -180)" fill="#fff"/><path d="M650.17,603c-5.57,0-5.57,8.71,0,8.71S655.75,603,650.17,603Z" transform="translate(-146 -180)" fill="#fff"/><path d="M475.74,626.2c-5.57,0-5.57,8.71,0,8.71S481.32,626.2,475.74,626.2Z" transform="translate(-146 -180)" fill="#fff"/><path d="M491.78,520.11a4.48,4.48,0,0,0-3.06-1.27h-1.44a4.35,4.35,0,0,0,0,8.71h1.44a4.36,4.36,0,0,0,3.06-7.43Z" transform="translate(-146 -180)" fill="#fff"/><path d="M534.85,475.3c-5.57,0-5.57,8.71,0,8.71S540.42,475.3,534.85,475.3Z" transform="translate(-146 -180)" fill="#fff"/><path d="M572.33,560.91c-5.57,0-5.57,8.71,0,8.71S577.9,560.91,572.33,560.91Z" transform="translate(-146 -180)" fill="#fff"/><path d="M668.91,511.58c-5.57,0-5.57,8.71,0,8.71S674.49,511.58,668.91,511.58Z" transform="translate(-146 -180)" fill="#fff"/><path d="M778.47,494.16c-5.57,0-5.57,8.71,0,8.71S784,494.16,778.47,494.16Z" transform="translate(-146 -180)" fill="#fff"/><path d="M865,450.64c-5.57,0-5.57,8.71,0,8.71S870.54,450.64,865,450.64Z" transform="translate(-146 -180)" fill="#fff"/><path d="M863.52,386.8c-5.57,0-5.57,8.71,0,8.71S869.1,386.8,863.52,386.8Z" transform="translate(-146 -180)" fill="#fff"/><path d="M863.52,401.31c-5.57,0-5.57,8.71,0,8.71S869.1,401.31,863.52,401.31Z" transform="translate(-146 -180)" fill="#fff"/><path d="M850.55,412.91c-5.57,0-5.57,8.71,0,8.71S856.12,412.91,850.55,412.91Z" transform="translate(-146 -180)" fill="#fff"/><path d="M879.67,398.43c2-2.47,1-7.28-3.17-7.28-5.46,0-5.56,8.36-.29,8.68-2,2.47-1,7.28,3.17,7.28C884.84,407.11,884.94,398.75,879.67,398.43Z" transform="translate(-146 -180)" fill="#fff"/><path d="M899.56,225.74c-5.57,0-5.57,8.71,0,8.71S905.13,225.74,899.56,225.74Z" transform="translate(-146 -180)" fill="#fff"/><path d="M778.47,437.58c-5.57,0-5.57,8.71,0,8.71S784,437.58,778.47,437.58Z" transform="translate(-146 -180)" fill="#fff"/></svg>